<svg xmlns="http://www.w3.org/2000/svg" width="48" height="48" viewBox="0 0 24 24" fill="none" stroke="currentColor" stroke-width="1.5" stroke-linecap="round" stroke-linejoin="round">
  <path d="M17.5 9.75a5.75 5.75 0 1 1-11.5 0 5.75 5.75 0 0 1 11.5 0z"/>
  <path d="M12 15.5v1.75a2.75 2.75 0 0 0 2.75 2.75h0a2.75 2.75 0 0 0 2.75-2.75v-2.5"/>
  <path d="M12 15.5v1.75a2.75 2.75 0 0 1-2.75 2.75h0A2.75 2.75 0 0 1 6.5 17.25v-2.5"/>
  <circle cx="10" cy="9.5" r="1" fill="currentColor"/>
  <circle cx="14" cy="9.5" r="1" fill="currentColor"/>
  <path d="M9.5 12.5s.5 1 2.5 1 2.5-1 2.5-1"/>
  <path d="M18 3.5l2.5 2.5"/> 
  <path d="M20.5 3.5l-2.5 2.5"/>
</svg>